<?xml version="1.0" encoding="UTF-8" standalone="no"?><!DOCTYPE svg PUBLIC "-//W3C//DTD SVG 1.1//EN" "http://www.w3.org/Graphics/SVG/1.1/DTD/svg11.dtd"><svg class="social" width="35" height="35" viewBox="0 0 152 110" version="1.1" xmlns="http://www.w3.org/2000/svg" xmlnsXlink="http://www.w3.org/1999/xlink" xmlSpace="preserve" xmlnsSerif="http://www.serif.com/" style="fill-rule:evenodd;clip-rule:evenodd;stroke-linejoin:round;stroke-miterlimit:2;"><path d="M111.877,109.023c0,-0 -4.672,-5.581 -8.566,-10.513c17.002,-4.802 23.492,-15.445 23.492,-15.445c-5.321,3.505 -10.383,5.971 -14.926,7.658c-6.489,2.725 -12.719,4.542 -18.819,5.581c-12.46,2.336 -23.881,1.687 -33.615,-0.13c-7.398,-1.428 -13.758,-3.504 -19.079,-5.581c-2.985,-1.168 -6.23,-2.596 -9.474,-4.413c-0.39,-0.259 -0.779,-0.389 -1.169,-0.649c-0.259,-0.129 -0.389,-0.259 -0.519,-0.389c-2.336,-1.298 -3.634,-2.206 -3.634,-2.206c0,-0 6.23,10.383 22.713,15.315c-3.894,4.932 -8.696,10.772 -8.696,10.772c-28.683,-0.909 -39.585,-19.728 -39.585,-19.728c0,-41.792 18.689,-75.666 18.689,-75.666c18.69,-14.017 36.471,-13.628 36.471,-13.628l1.298,1.558c-23.362,6.749 -34.134,17.002 -34.134,17.002c-0,-0 2.855,-1.558 7.657,-3.764c13.887,-6.1 24.919,-7.787 29.462,-8.177c0.779,-0.13 1.428,-0.259 2.206,-0.259c7.917,-1.039 16.873,-1.298 26.217,-0.26c12.33,1.428 25.569,5.062 39.067,12.46c-0,-0 -10.254,-9.734 -32.318,-16.483l1.817,-2.077c0,0 17.781,-0.389 36.471,13.628c-0,-0 18.689,33.874 18.689,75.666c0,0 -11.032,18.819 -39.715,19.728Zm-60.351,-60.611c-7.398,-0 -13.239,6.489 -13.239,14.406c0,7.918 5.971,14.407 13.239,14.407c7.398,-0 13.238,-6.489 13.238,-14.407c0.13,-7.917 -5.84,-14.406 -13.238,-14.406m47.372,-0c-7.397,-0 -13.238,6.489 -13.238,14.406c0,7.918 5.97,14.407 13.238,14.407c7.398,-0 13.239,-6.489 13.239,-14.407c-0,-7.917 -5.841,-14.406 -13.239,-14.406" style="fill:#fff;fill-rule:nonzero;"/></svg>