<?xml version="1.0" encoding="UTF-8" standalone="no"?><!DOCTYPE svg PUBLIC "-//W3C//DTD SVG 1.1//EN" "http://www.w3.org/Graphics/SVG/1.1/DTD/svg11.dtd"><svg class="social" width="35" height="35" viewBox="0 0 152 137" version="1.1" xmlns="http://www.w3.org/2000/svg" xmlnsXlink="http://www.w3.org/1999/xlink" xmlSpace="preserve" xmlnsSerif="http://www.serif.com/" style="fill-rule:evenodd;clip-rule:evenodd;stroke-linejoin:round;stroke-miterlimit:2;"><path d="M151.439,87.116l0,7.912c0,0.454 -0.277,0.858 -0.681,1.035c-2.474,1.06 -10.942,4.947 -14.463,9.843c-8.985,12.507 -15.85,30.389 -31.196,30.389l-64.021,0c-22.691,0 -41.078,-18.45 -41.078,-41.216l-0,-0.732c-0,-0.606 0.492,-1.098 1.098,-1.098l35.689,-0c0.707,-0 1.224,0.656 1.161,1.35c-0.252,2.322 0.177,4.695 1.275,6.853c2.12,4.303 6.512,6.991 11.257,6.991l17.668,0l-0,-13.793l-17.466,-0c-0.896,-0 -1.426,-1.035 -0.909,-1.767c0.189,-0.291 0.404,-0.593 0.631,-0.934c1.653,-2.347 4.013,-5.994 6.361,-10.146c1.602,-2.802 3.154,-5.793 4.404,-8.797c0.252,-0.542 0.454,-1.098 0.656,-1.64c0.341,-0.959 0.694,-1.855 0.947,-2.751c0.252,-0.758 0.454,-1.553 0.656,-2.297c0.593,-2.55 0.845,-5.25 0.845,-8.052c0,-1.098 -0.05,-2.246 -0.151,-3.344c-0.051,-1.199 -0.202,-2.398 -0.354,-3.597c-0.101,-1.06 -0.29,-2.107 -0.492,-3.205c-0.252,-1.603 -0.605,-3.193 -1.009,-4.796l-0.139,-0.605c-0.303,-1.099 -0.555,-2.146 -0.909,-3.244c-0.997,-3.445 -2.145,-6.802 -3.357,-9.944c-0.441,-1.25 -0.946,-2.449 -1.451,-3.647c-0.744,-1.805 -1.502,-3.446 -2.196,-4.998c-0.353,-0.707 -0.656,-1.35 -0.959,-2.007c-0.341,-0.744 -0.694,-1.489 -1.047,-2.195c-0.253,-0.543 -0.543,-1.048 -0.745,-1.553l-2.158,-3.988c-0.303,-0.542 0.202,-1.186 0.795,-1.022l13.504,3.66l0.037,-0c0.025,-0 0.038,0.013 0.051,0.013l1.779,0.492l1.956,0.555l0.72,0.202l-0,-8.026c-0,-3.875 3.104,-7.017 6.941,-7.017c1.918,0 3.659,0.782 4.909,2.057c1.249,1.275 2.032,3.016 2.032,4.96l-0,11.913l1.438,0.404c0.114,0.038 0.227,0.088 0.328,0.164c0.354,0.265 0.858,0.656 1.502,1.136c0.505,0.403 1.048,0.896 1.704,1.4c1.3,1.048 2.852,2.398 4.556,3.951c0.454,0.391 0.896,0.795 1.299,1.198c2.196,2.045 4.657,4.443 7.005,7.093c0.656,0.744 1.299,1.502 1.956,2.297c0.656,0.807 1.35,1.602 1.956,2.397c0.795,1.06 1.653,2.158 2.398,3.307c0.353,0.543 0.757,1.098 1.097,1.64c0.96,1.452 1.805,2.954 2.613,4.455c0.341,0.694 0.694,1.451 0.997,2.196c0.896,2.007 1.602,4.051 2.057,6.096c0.139,0.441 0.239,0.921 0.29,1.35l0,0.101c0.151,0.605 0.202,1.249 0.252,1.905c0.202,2.095 0.101,4.19 -0.353,6.298c-0.189,0.896 -0.442,1.741 -0.744,2.637c-0.303,0.859 -0.606,1.754 -0.997,2.6c-0.758,1.754 -1.654,3.508 -2.714,5.149c-0.341,0.606 -0.744,1.249 -1.148,1.855c-0.442,0.644 -0.896,1.249 -1.3,1.843c-0.555,0.757 -1.148,1.552 -1.754,2.259c-0.543,0.744 -1.098,1.489 -1.704,2.145c-0.845,0.997 -1.653,1.943 -2.499,2.852c-0.504,0.593 -1.047,1.199 -1.602,1.742c-0.543,0.605 -1.098,1.148 -1.603,1.653c-0.846,0.845 -1.552,1.502 -2.146,2.044l-1.388,1.275c-0.202,0.177 -0.467,0.278 -0.744,0.278l-10.752,-0l-0,13.793l13.528,0c3.029,0 5.906,-1.073 8.228,-3.041c0.795,-0.694 4.266,-3.698 8.367,-8.228c0.139,-0.152 0.316,-0.266 0.518,-0.316l37.367,-10.803c0.695,-0.201 1.401,0.328 1.401,1.061Z" style="fill:#fff;fill-rule:nonzero;"/></svg>