<?xml version="1.0" encoding="UTF-8" standalone="no"?><!DOCTYPE svg PUBLIC "-//W3C//DTD SVG 1.1//EN" "http://www.w3.org/Graphics/SVG/1.1/DTD/svg11.dtd"><svg class="social" width="35" height="35" viewBox="0 0 152 124" version="1.1" xmlns="http://www.w3.org/2000/svg" xmlnsXlink="http://www.w3.org/1999/xlink" xmlSpace="preserve" xmlnsSerif="http://www.serif.com/" style="fill-rule:evenodd;clip-rule:evenodd;stroke-linejoin:round;stroke-miterlimit:2;"><path d="M151.592,14.584c-5.577,2.473 -11.571,4.145 -17.863,4.897c6.422,-3.849 11.353,-9.944 13.675,-17.206c-6.009,3.563 -12.665,6.152 -19.749,7.547c-5.674,-6.045 -13.756,-9.822 -22.701,-9.822c-17.177,-0 -31.102,13.925 -31.102,31.1c-0,2.438 0.275,4.812 0.805,7.088c-25.848,-1.297 -48.764,-13.679 -64.104,-32.495c-2.677,4.593 -4.211,9.936 -4.211,15.636c0,10.789 5.491,20.309 13.836,25.886c-5.098,-0.161 -9.893,-1.56 -14.087,-3.89c-0.002,0.13 -0.002,0.26 -0.002,0.391c-0,15.069 10.72,27.639 24.948,30.496c-2.61,0.711 -5.357,1.091 -8.194,1.091c-2.004,-0 -3.953,-0.195 -5.851,-0.558c3.957,12.356 15.443,21.348 29.052,21.599c-10.644,8.341 -24.054,13.313 -38.625,13.313c-2.51,0 -4.986,-0.147 -7.419,-0.434c13.764,8.824 30.112,13.973 47.675,13.973c57.206,-0 88.488,-47.391 88.488,-88.489c0,-1.349 -0.03,-2.69 -0.09,-4.024c6.076,-4.385 11.35,-9.862 15.519,-16.099" style="fill:#fff;fill-rule:nonzero;"/></svg>